<svg xmlns="http://www.w3.org/2000/svg" version="1.1" xmlns:xlink="http://www.w3.org/1999/xlink" xmlns:svgjs="http://svgjs.com/svgjs" width="1440" height="720" preserveAspectRatio="none" viewBox="0 0 1440 720"><g mask="url(&quot;#SvgjsMask1009&quot;)" fill="none"><path d="M1213.4325483312764 425.31571534758604L1004.0431981852238 428.9706200496626 1217.087453033353 634.7050654936386z" fill="rgba(2, 119, 245, 0.4)" class="triangle-float1"></path><path d="M250.54755663018798 535.8571187023114L210.521533165785 634.9250031735874 379.13637160490043 645.4300961345538z" fill="rgba(2, 119, 245, 0.4)" class="triangle-float1"></path><path d="M558.7441477598431-10.563976257379124L675.7349935923977 156.85562927104772 754.0029179823753-3.617396778161094z" fill="rgba(2, 119, 245, 0.4)" class="triangle-float2"></path><path d="M421.985,456.133C446.54,455.775,464.697,435.26,475.786,413.348C485.716,393.726,486.488,370.42,474.782,351.803C463.751,334.26,442.708,327.653,421.985,327.78C401.524,327.905,381.437,335.281,370.296,352.443C358.097,371.235,355.397,394.908,365.392,414.959C376.547,437.336,396.985,456.498,421.985,456.133" fill="rgba(2, 119, 245, 0.4)" class="triangle-float1"></path><path d="M281.508,631.867C328.755,634.232,378.588,621.431,403.973,581.513C430.993,539.024,429.117,483.72,403.154,440.576C377.955,398.701,330.378,377.523,281.508,378.007C233.533,378.482,186.612,400.648,163.965,442.944C142.358,483.297,154.402,531.366,178.583,570.232C201.225,606.624,238.701,629.724,281.508,631.867" fill="rgba(2, 119, 245, 0.4)" class="triangle-float3"></path><path d="M281.3641467815055 225.76380687610052L424.80427279321464 275.1542031156811 330.7545430210861 82.32368086439135z" fill="rgba(2, 119, 245, 0.4)" class="triangle-float1"></path><path d="M714.316,729.679C752.617,730.353,788.866,713.159,809.937,681.168C833.468,645.441,846.27,599.174,824.546,562.32C803.056,525.863,756.505,515.639,714.316,518.952C677.884,521.813,648.483,545.757,630.483,577.56C612.793,608.816,607.018,646.446,624.353,677.901C642.252,710.379,677.238,729.026,714.316,729.679" fill="rgba(2, 119, 245, 0.4)" class="triangle-float2"></path><path d="M134.73,751.699C193.079,752.972,256.817,748.038,289.615,699.762C325.891,646.367,327.181,573.708,292.749,519.106C260.191,467.475,195.742,452.336,134.73,454.144C77.383,455.844,21.681,478.833,-7.858,528.016C-38.252,578.623,-40.607,643.47,-8.875,693.249C20.9,739.958,79.351,750.491,134.73,751.699" fill="rgba(2, 119, 245, 0.4)" class="triangle-float3"></path><path d="M766.136,741.884C824.129,742.271,864.557,690.306,891.771,639.094C916.983,591.649,926.172,536.18,900.537,488.962C873.763,439.647,822.228,409.258,766.136,407.686C707.108,406.032,645.85,428.963,618.021,481.045C591.345,530.968,615.42,588.216,643.37,637.437C671.805,687.513,708.551,741.5,766.136,741.884" fill="rgba(2, 119, 245, 0.4)" class="triangle-float1"></path><path d="M1317.642,267.28C1337.036,266.017,1349.745,248.77,1358.583,231.461C1366.468,216.018,1368.678,198.36,1360.688,182.97C1352.016,166.266,1336.46,152.962,1317.642,152.6C1298.279,152.228,1281.655,164.688,1271.629,181.258C1261.185,198.518,1256.774,219.683,1266.289,237.472C1276.294,256.177,1296.474,268.659,1317.642,267.28" fill="rgba(2, 119, 245, 0.4)" class="triangle-float3"></path><path d="M-57.50790139371112 743.0371849595253L112.9233203774239 795.1432385334465-5.401847819789943 572.6059631883903z" fill="rgba(2, 119, 245, 0.4)" class="triangle-float2"></path><path d="M265.0906319321583 442.02293166826837L105.94074440580053 499.9487535146766 323.01645377856653 601.1728191946262z" fill="rgba(2, 119, 245, 0.4)" class="triangle-float3"></path></g><defs><mask id="SvgjsMask1009"><rect width="1440" height="720" fill="#ffffff"></rect></mask><style>
            @keyframes float1 {
                0%{transform: translate(0, 0)}
                50%{transform: translate(-10px, 0)}
                100%{transform: translate(0, 0)}
            }

            .triangle-float1 {
                animation: float1 5s infinite;
            }

            @keyframes float2 {
                0%{transform: translate(0, 0)}
                50%{transform: translate(-5px, -5px)}
                100%{transform: translate(0, 0)}
            }

            .triangle-float2 {
                animation: float2 4s infinite;
            }

            @keyframes float3 {
                0%{transform: translate(0, 0)}
                50%{transform: translate(0, -10px)}
                100%{transform: translate(0, 0)}
            }

            .triangle-float3 {
                animation: float3 6s infinite;
            }
        </style></defs></svg>