<svg xmlns="http://www.w3.org/2000/svg" viewBox="0 0 1440 320"><path fill="#0099ff" fill-opacity="1" d="M0,256L17.1,250.7C34.3,245,69,235,103,240C137.1,245,171,267,206,229.3C240,192,274,96,309,80C342.9,64,377,128,411,160C445.7,192,480,192,514,186.7C548.6,181,583,171,617,176C651.4,181,686,203,720,192C754.3,181,789,139,823,149.3C857.1,160,891,224,926,224C960,224,994,160,1029,128C1062.9,96,1097,96,1131,101.3C1165.7,107,1200,117,1234,149.3C1268.6,181,1303,235,1337,256C1371.4,277,1406,267,1423,261.3L1440,256L1440,320L1422.9,320C1405.7,320,1371,320,1337,320C1302.9,320,1269,320,1234,320C1200,320,1166,320,1131,320C1097.1,320,1063,320,1029,320C994.3,320,960,320,926,320C891.4,320,857,320,823,320C788.6,320,754,320,720,320C685.7,320,651,320,617,320C582.9,320,549,320,514,320C480,320,446,320,411,320C377.1,320,343,320,309,320C274.3,320,240,320,206,320C171.4,320,137,320,103,320C68.6,320,34,320,17,320L0,320Z"></path></svg>