<svg xmlns="http://www.w3.org/2000/svg" version="1.1" xmlns:xlink="http://www.w3.org/1999/xlink" xmlns:svgjs="http://svgjs.com/svgjs" width="1440" height="5000" preserveAspectRatio="none" viewBox="0 0 1440 5000">
    <g mask="url(&quot;#SvgjsMask1289&quot;)" fill="none">
        <rect width="1440" height="5000" x="0" y="0" fill="url(#SvgjsRadialGradient1290)"></rect>
        <path d="M813.8794960867364 2556.773760983854L612.0740830366087 2805.9826917328382 861.283013785593 3007.788104782966 1063.0884268357206 2758.579174033982z" fill="rgba(2, 119, 245, 0.4)" class="triangle-float1"></path>
        <path d="M601.2574549060116 1606.0551170778485L478.23483260191784 1819.1365493888952 691.3162649129645 1942.1591716929888 814.3388872170583 1729.0777393819424z" fill="rgba(2, 119, 245, 0.4)" class="triangle-float3"></path>
        <path d="M1215.0460391066235 2468.247912570903L1616.4774424283428 2360.6846922343557 1508.9142220917959 1959.2532889126367 1107.4828187700766 2066.8165092491836z" fill="rgba(2, 119, 245, 0.4)" class="triangle-float3"></path>
        <path d="M1082.7889870413912 367.32248634975406L1234.1961352828225 204.95819810157434 1071.831847034643 53.55104986014294 920.4246987932115 215.91533810832266z" fill="rgba(2, 119, 245, 0.4)" class="triangle-float3"></path>
        <path d="M960.1149778882518 3373.948646483359L825.3104395222558 3109.379843296483 560.7416363353802 3244.184381662479 695.5461747013761 3508.753184849355z" fill="rgba(2, 119, 245, 0.4)" class="triangle-float3"></path>
        <path d="M1040.5942300586566 52.25145590766972L806.8489526806413 101.9355483737463 856.5330451467179 335.6808257517616 1090.2783225247333 285.996733285685z" fill="rgba(2, 119, 245, 0.4)" class="triangle-float2"></path>
        <path d="M1022.236311952457-111.34303826419227L862.3774139735514 216.41627437259058 1190.1367266103343 376.27517235149617 1349.99562458924 48.51585971471329z" fill="rgba(2, 119, 245, 0.4)" class="triangle-float3"></path>
        <path d="M1026.1686799058093 4113.791030646956L1255.087473059313 3907.67162347576 1048.9680658881175 3678.7528303222566 820.0492727346139 3884.8722374934523z" fill="rgba(2, 119, 245, 0.4)" class="triangle-float1"></path>
        <path d="M332.8784161683506 1662.7202098801565L654.464093559467 1887.8969253696919 879.6408090490024 1566.3112479785757 558.055131657886 1341.13453248904z" fill="rgba(2, 119, 245, 0.4)" class="triangle-float1"></path>
        <path d="M634.8332312750434 4785.978091132942L1029.723741399527 4642.249699653433 885.9953499200183 4247.359189528949 491.1048397955347 4391.087581008458z" fill="rgba(2, 119, 245, 0.4)" class="triangle-float3"></path>
        <path d="M681.4354725848342 2709.0249268844213L914.8051323532744 2387.819146392631 593.5993518614841 2154.449486624191 360.229692093044 2475.655267115981z" fill="rgba(2, 119, 245, 0.4)" class="triangle-float2"></path>
        <path d="M1091.3873511186732 3486.475383408538L962.414551198557 3883.4128464660776 1359.3520142560965 4012.385646386194 1488.3248141762128 3615.4481833286545z" fill="rgba(2, 119, 245, 0.4)" class="triangle-float3"></path>
        <path d="M720.8085706373167 795.5300351910552L1009.3105184658752 968.8794941539797 1182.6599774288 680.3775463254212 894.1580296002413 507.0280873624966z" fill="rgba(2, 119, 245, 0.4)" class="triangle-float3"></path>
        <path d="M579.6492234503875 2294.4088624479427L762.7773616448408 2156.4119122237285 624.7804114206263 1973.2837740292748 441.65227322617295 2111.2807242534896z" fill="rgba(2, 119, 245, 0.4)" class="triangle-float3"></path>
        <path d="M1182.2861449350128 3105.1539003265198L847.0575187905722 3227.167141917049 969.0707603811014 3562.3957680614894 1304.299386525542 3440.3825264709603z" fill="rgba(2, 119, 245, 0.4)" class="triangle-float1"></path>
        <path d="M1196.2764096938847 356.0458882291381L1051.3248370807894 132.84004011240722 828.1189889640586 277.79161272550243 973.0705615771539 500.9974608422333z" fill="rgba(2, 119, 245, 0.4)" class="triangle-float3"></path>
        <path d="M1141.033028345974 1019.3704542482302L733.3859954184176 962.0793999766382 676.0949411468256 1369.7264329041946 1083.741974074382 1427.0174871757865z" fill="rgba(2, 119, 245, 0.4)" class="triangle-float1"></path>
        <path d="M964.8815455185959 4615.781632594384L1084.9434785089527 4912.945344534564 1382.1071904491325 4792.883411544207 1262.0452574587757 4495.7196996040275z" fill="rgba(2, 119, 245, 0.4)" class="triangle-float3"></path>
        <path d="M147.73076290434543 3610.518816968392L393.9078789749051 3937.2068840512748 720.5959460577878 3691.0297679807154 474.41882998722826 3364.341700897832z" fill="rgba(2, 119, 245, 0.4)" class="triangle-float1"></path>
        <path d="M1333.522219734454 2902.9719535633653L1094.8715146024617 2597.512980512694 789.4125415517902 2836.163685644686 1028.0632466837826 3141.6226586953576z" fill="rgba(2, 119, 245, 0.4)" class="triangle-float2"></path>
    </g>
    <defs>
        <mask id="SvgjsMask1289">
            <rect width="1440" height="5000" fill="#ffffff"></rect>
        </mask>
        <radialGradient cx="50%" cy="100%" r="5051.57" gradientUnits="userSpaceOnUse" id="SvgjsRadialGradient1290">
            <stop stop-color="rgba(225, 231, 245, 1)" offset="0.33"></stop>
            <stop stop-color="rgba(210, 241, 209, 1)" offset="1"></stop>
        </radialGradient>
        <style>
            @keyframes float1 {
                0%{transform: translate(0, 0)}
                50%{transform: translate(-10px, 0)}
                100%{transform: translate(0, 0)}
            }

            .triangle-float1 {
                animation: float1 5s infinite;
            }

            @keyframes float2 {
                0%{transform: translate(0, 0)}
                50%{transform: translate(-5px, -5px)}
                100%{transform: translate(0, 0)}
            }

            .triangle-float2 {
                animation: float2 4s infinite;
            }

            @keyframes float3 {
                0%{transform: translate(0, 0)}
                50%{transform: translate(0, -10px)}
                100%{transform: translate(0, 0)}
            }

            .triangle-float3 {
                animation: float3 6s infinite;
            }
        </style>
    </defs>
</svg>